<svg width="91" height="40" viewBox="0 0 91 40" fill="none" xmlns="http://www.w3.org/2000/svg">
<path d="M36.4077 28V11.1537H42.8567C44.0741 11.1537 45.0858 11.3457 45.8919 11.7295C46.7036 12.1079 47.3095 12.6261 47.7098 13.2842C48.1156 13.9422 48.3185 14.688 48.3185 15.5216C48.3185 16.2071 48.1869 16.7938 47.9237 17.2819C47.6605 17.7645 47.3068 18.1566 46.8626 18.4582C46.4184 18.7598 45.9221 18.9764 45.3737 19.108V19.2725C45.9715 19.3054 46.5445 19.4891 47.0929 19.8236C47.6468 20.1527 48.0992 20.6188 48.4501 21.222C48.8011 21.8252 48.9766 22.5546 48.9766 23.41C48.9766 24.282 48.7655 25.0662 48.3432 25.7626C47.921 26.4536 47.2848 26.9992 46.4348 27.3995C45.5849 27.7998 44.5155 28 43.2268 28H36.4077ZM39.4594 25.45H42.7415C43.8492 25.45 44.6471 25.2389 45.1352 24.8166C45.6287 24.3889 45.8755 23.8405 45.8755 23.1715C45.8755 22.6725 45.7521 22.2228 45.5053 21.8225C45.2586 21.4167 44.9076 21.0986 44.4524 20.8683C43.9973 20.6325 43.4544 20.5146 42.8238 20.5146H39.4594V25.45ZM39.4594 18.3183H42.4783C43.0047 18.3183 43.4791 18.2224 43.9013 18.0304C44.3236 17.833 44.6553 17.5561 44.8966 17.1996C45.1434 16.8377 45.2668 16.41 45.2668 15.9164C45.2668 15.2638 45.0365 14.7264 44.5758 14.3042C44.1207 13.8819 43.4434 13.6708 42.5441 13.6708H39.4594V18.3183ZM55.1356 28.255C54.335 28.255 53.6138 28.1124 52.9722 27.8273C52.3361 27.5366 51.8316 27.1089 51.4587 26.544C51.0913 25.9792 50.9076 25.2828 50.9076 24.4547C50.9076 23.7418 51.0392 23.1523 51.3024 22.6862C51.5656 22.2201 51.9248 21.8472 52.38 21.5675C52.8351 21.2878 53.3479 21.0767 53.9182 20.9341C54.494 20.786 55.089 20.6791 55.7032 20.6133C56.4435 20.5365 57.044 20.468 57.5046 20.4077C57.9653 20.3419 58.2998 20.2431 58.5082 20.1115C58.722 19.9744 58.829 19.7633 58.829 19.4782V19.4288C58.829 18.8091 58.6452 18.3293 58.2778 17.9893C57.9104 17.6493 57.3812 17.4793 56.6903 17.4793C55.9609 17.4793 55.3824 17.6383 54.9546 17.9564C54.5324 18.2745 54.2472 18.6501 54.0992 19.0833L51.3189 18.6885C51.5382 17.9207 51.9002 17.2791 52.4047 16.7637C52.9092 16.2427 53.5261 15.8533 54.2555 15.5956C54.9848 15.3324 55.7909 15.2008 56.6738 15.2008C57.2825 15.2008 57.8885 15.2721 58.4917 15.4146C59.0949 15.5572 59.646 15.793 60.1451 16.1221C60.6441 16.4456 61.0444 16.887 61.346 17.4464C61.6531 18.0057 61.8067 18.7049 61.8067 19.544V28H58.9441V26.2644H58.8454C58.6644 26.6153 58.4094 26.9444 58.0804 27.2515C57.7569 27.5531 57.3483 27.7971 56.8548 27.9835C56.3667 28.1645 55.7937 28.255 55.1356 28.255ZM55.9088 26.067C56.5066 26.067 57.0248 25.9491 57.4635 25.7132C57.9022 25.472 58.2394 25.1539 58.4752 24.7591C58.7165 24.3642 58.8372 23.9338 58.8372 23.4676V21.9788C58.744 22.0555 58.5849 22.1268 58.3601 22.1926C58.1407 22.2584 57.894 22.316 57.6198 22.3654C57.3456 22.4147 57.0741 22.4586 56.8054 22.497C56.5367 22.5354 56.3037 22.5683 56.1062 22.5957C55.6621 22.656 55.2645 22.7547 54.9135 22.8918C54.5625 23.0289 54.2856 23.2209 54.0827 23.4676C53.8798 23.7089 53.7784 24.0215 53.7784 24.4054C53.7784 24.9537 53.9785 25.3678 54.3788 25.6474C54.7792 25.9271 55.2892 26.067 55.9088 26.067ZM67.7785 20.5968V28H64.8008V15.3653H67.6469V17.5122H67.795C68.0856 16.8048 68.549 16.2427 69.1851 15.8259C69.8267 15.4092 70.6192 15.2008 71.5624 15.2008C72.4343 15.2008 73.1938 15.3872 73.8409 15.7601C74.4935 16.133 74.998 16.6732 75.3544 17.3806C75.7164 18.088 75.8946 18.9462 75.8891 19.9552V28H72.9114V20.4159C72.9114 19.5714 72.692 18.9106 72.2533 18.4335C71.8201 17.9564 71.2196 17.7178 70.4519 17.7178C69.9309 17.7178 69.4676 17.833 69.0618 18.0633C68.6614 18.2882 68.3461 18.6145 68.1158 19.0422C67.891 19.4699 67.7785 19.9881 67.7785 20.5968ZM81.6307 24.0352L81.6224 20.4406H82.0995L86.6401 15.3653H90.1196L84.5343 21.5839H83.9174L81.6307 24.0352ZM78.9162 28V11.1537H81.8939V28H78.9162ZM86.8458 28L82.7329 22.2502L84.74 20.1527L90.4075 28H86.8458Z" fill="black"/>
<path d="M28.127 20.6816C28.127 28.4488 21.8306 34.7451 14.0635 34.7451C12.81 34.7451 11.5951 34.5802 10.4385 34.2725L28.123 20.3779C28.1252 20.4789 28.127 20.5801 28.127 20.6816ZM26.8701 14.8623C27.1297 15.4327 27.3516 16.0237 27.5342 16.6318L6.94238 32.8096C4.84143 31.5733 3.08913 29.8082 1.87109 27.6953L26.8701 14.8623ZM23.7012 10.4414C24.2228 10.9325 24.7076 11.4622 25.1494 12.0273L0.567383 24.6475C0.198391 23.3897 0 22.0588 0 20.6816C2.55362e-06 20.1679 0.0273582 19.6606 0.0810547 19.1611L23.7012 10.4414ZM14.0635 6.61816C16.3482 6.61816 18.5057 7.1631 20.4131 8.12988L1.08008 15.2666C3.2009 10.1875 8.21545 6.61823 14.0635 6.61816Z" fill="url(#paint0_linear_111_6653)"/>
<defs>
<linearGradient id="paint0_linear_111_6653" x1="25.6452" y1="14.0635" x2="-3.30905" y2="32.2633" gradientUnits="userSpaceOnUse">
<stop stop-color="#00E40C"/>
<stop offset="1" stop-color="#0F6D14"/>
</linearGradient>
</defs>
</svg>
