<svg width="91" height="40" viewBox="0 0 91 40" fill="none" xmlns="http://www.w3.org/2000/svg">
<path d="M36.4116 28V11.1537H42.8606C44.078 11.1537 45.0897 11.3457 45.8959 11.7295C46.7075 12.1079 47.3134 12.6261 47.7137 13.2842C48.1195 13.9422 48.3224 14.688 48.3224 15.5216C48.3224 16.2071 48.1908 16.7938 47.9276 17.2819C47.6644 17.7645 47.3107 18.1566 46.8665 18.4582C46.4223 18.7598 45.926 18.9764 45.3776 19.108V19.2725C45.9754 19.3054 46.5484 19.4891 47.0968 19.8236C47.6507 20.1527 48.1031 20.6188 48.4541 21.222C48.805 21.8252 48.9805 22.5546 48.9805 23.41C48.9805 24.282 48.7694 25.0662 48.3471 25.7626C47.9249 26.4536 47.2887 26.9992 46.4388 27.3995C45.5888 27.7998 44.5194 28 43.2307 28H36.4116ZM39.4633 25.45H42.7454C43.8531 25.45 44.651 25.2389 45.1391 24.8166C45.6326 24.3889 45.8794 23.8405 45.8794 23.1715C45.8794 22.6725 45.756 22.2228 45.5092 21.8225C45.2625 21.4167 44.9115 21.0986 44.4564 20.8683C44.0012 20.6325 43.4583 20.5146 42.8277 20.5146H39.4633V25.45ZM39.4633 18.3183H42.4822C43.0086 18.3183 43.483 18.2224 43.9052 18.0304C44.3275 17.833 44.6593 17.5561 44.9005 17.1996C45.1473 16.8377 45.2707 16.41 45.2707 15.9164C45.2707 15.2638 45.0404 14.7264 44.5797 14.3042C44.1246 13.8819 43.4473 13.6708 42.548 13.6708H39.4633V18.3183ZM55.1395 28.255C54.3389 28.255 53.6178 28.1124 52.9761 27.8273C52.34 27.5366 51.8355 27.1089 51.4626 26.544C51.0952 25.9792 50.9115 25.2828 50.9115 24.4547C50.9115 23.7418 51.0431 23.1523 51.3063 22.6862C51.5695 22.2201 51.9287 21.8472 52.3839 21.5675C52.8391 21.2878 53.3518 21.0767 53.9221 20.9341C54.4979 20.786 55.0929 20.6791 55.7071 20.6133C56.4474 20.5365 57.0479 20.468 57.5085 20.4077C57.9692 20.3419 58.3037 20.2431 58.5121 20.1115C58.7259 19.9744 58.8329 19.7633 58.8329 19.4782V19.4288C58.8329 18.8091 58.6492 18.3293 58.2817 17.9893C57.9143 17.6493 57.3851 17.4793 56.6942 17.4793C55.9648 17.4793 55.3863 17.6383 54.9585 17.9564C54.5363 18.2745 54.2511 18.6501 54.1031 19.0833L51.3228 18.6885C51.5421 17.9207 51.9041 17.2791 52.4086 16.7637C52.9131 16.2427 53.53 15.8533 54.2594 15.5956C54.9887 15.3324 55.7948 15.2008 56.6777 15.2008C57.2864 15.2008 57.8924 15.2721 58.4956 15.4146C59.0988 15.5572 59.6499 15.793 60.149 16.1221C60.648 16.4456 61.0483 16.887 61.3499 17.4464C61.657 18.0057 61.8106 18.7049 61.8106 19.544V28H58.948V26.2644H58.8493C58.6683 26.6153 58.4133 26.9444 58.0843 27.2515C57.7608 27.5531 57.3522 27.7971 56.8587 27.9835C56.3706 28.1645 55.7976 28.255 55.1395 28.255ZM55.9127 26.067C56.5105 26.067 57.0287 25.9491 57.4674 25.7132C57.9061 25.472 58.2434 25.1539 58.4792 24.7591C58.7204 24.3642 58.8411 23.9338 58.8411 23.4676V21.9788C58.7479 22.0555 58.5888 22.1268 58.364 22.1926C58.1446 22.2584 57.8979 22.316 57.6237 22.3654C57.3495 22.4147 57.078 22.4586 56.8093 22.497C56.5406 22.5354 56.3076 22.5683 56.1101 22.5957C55.666 22.656 55.2684 22.7547 54.9174 22.8918C54.5665 23.0289 54.2895 23.2209 54.0866 23.4676C53.8837 23.7089 53.7823 24.0215 53.7823 24.4054C53.7823 24.9537 53.9824 25.3678 54.3827 25.6474C54.7831 25.9271 55.2931 26.067 55.9127 26.067ZM67.7824 20.5968V28H64.8047V15.3653H67.6508V17.5122H67.7989C68.0895 16.8048 68.5529 16.2427 69.189 15.8259C69.8307 15.4092 70.6231 15.2008 71.5663 15.2008C72.4382 15.2008 73.1977 15.3872 73.8448 15.7601C74.4974 16.133 75.0019 16.6732 75.3583 17.3806C75.7203 18.088 75.8985 18.9462 75.893 19.9552V28H72.9153V20.4159C72.9153 19.5714 72.6959 18.9106 72.2572 18.4335C71.824 17.9564 71.2235 17.7178 70.4558 17.7178C69.9348 17.7178 69.4715 17.833 69.0657 18.0633C68.6653 18.2882 68.35 18.6145 68.1197 19.0422C67.8949 19.4699 67.7824 19.9881 67.7824 20.5968ZM81.6346 24.0352L81.6263 20.4406H82.1034L86.644 15.3653H90.1235L84.5382 21.5839H83.9213L81.6346 24.0352ZM78.9201 28V11.1537H81.8978V28H78.9201ZM86.8497 28L82.7368 22.2502L84.7439 20.1527L90.4114 28H86.8497Z" fill="black"/>
<path d="M28.127 20.6816C28.127 28.4488 21.8306 34.7451 14.0635 34.7451C12.81 34.7451 11.5951 34.5802 10.4385 34.2725L28.123 20.3779C28.1252 20.4789 28.127 20.5801 28.127 20.6816ZM26.8701 14.8623C27.1297 15.4327 27.3516 16.0237 27.5342 16.6318L6.94238 32.8096C4.84143 31.5733 3.08913 29.8082 1.87109 27.6953L26.8701 14.8623ZM23.7012 10.4414C24.2228 10.9325 24.7076 11.4622 25.1494 12.0273L0.567383 24.6475C0.198391 23.3897 0 22.0588 0 20.6816C2.55362e-06 20.1679 0.0273582 19.6606 0.0810547 19.1611L23.7012 10.4414ZM14.0635 6.61816C16.3482 6.61816 18.5057 7.1631 20.4131 8.12988L1.08008 15.2666C3.2009 10.1875 8.21545 6.61823 14.0635 6.61816Z" fill="url(#paint0_linear_278_12547)"/>
<defs>
<linearGradient id="paint0_linear_278_12547" x1="27" y1="15" x2="6" y2="27" gradientUnits="userSpaceOnUse">
<stop stop-color="#2580FF"/>
<stop offset="1" stop-color="#32CFFF"/>
</linearGradient>
</defs>
</svg>
